<?xml version="1.0" encoding="UTF-8"?>
<svg id="Layer_2" data-name="Layer 2" xmlns="http://www.w3.org/2000/svg" viewBox="0 0 110.89 110.89">
  <defs>
    <style>
      .cls-1 {
        fill: #254078;
      }

      .cls-1, .cls-2, .cls-3 {
        fill-rule: evenodd;
      }

      .cls-2 {
        fill: #ff62fd;
      }

      .cls-3 {
        fill: #0078ff;
      }
    </style>
  </defs>
  <g id="craft_logopack">
    <g id="craft_icon_colour_regular">
      <path class="cls-1" d="m59.05,107.6c0,1.82,1.47,3.29,3.29,3.29h45.36c1.82,0,3.3-1.48,3.18-3.29-1.63-26.06-22.48-46.92-48.54-48.54-1.81-.11-3.29,1.37-3.29,3.18v45.36Z"/>
      <path class="cls-1" d="m51.84,62.34c0-1.82-1.47-3.29-3.29-3.29H3.19c-1.82,0-3.3,1.48-3.18,3.29,1.63,26.06,22.48,46.92,48.54,48.54,1.81.11,3.29-1.37,3.29-3.18v-45.36Z"/>
      <path class="cls-2" d="m51.84,48.55c0,1.82-1.47,3.29-3.29,3.29H3.19c-1.82,0-3.3-1.48-3.18-3.29C1.63,22.49,22.49,1.63,48.55,0c1.81-.11,3.29,1.37,3.29,3.18v45.36Z"/>
      <path class="cls-3" d="m59.05,3.29c0-1.82,1.47-3.29,3.29-3.29h45.36c1.82,0,3.3,1.48,3.18,3.29-1.63,26.06-22.48,46.92-48.54,48.54-1.81.11-3.29-1.37-3.29-3.18V3.29Z"/>
    </g>
  </g>
</svg>