<?xml version="1.0" encoding="UTF-8"?>
<svg id="Layer_2" data-name="Layer 2" xmlns="http://www.w3.org/2000/svg" viewBox="0 0 110.89 110.89">
  <defs>
    <style>
      .cls-1 {
        fill: #fff;
        fill-rule: evenodd;
      }
    </style>
  </defs>
  <g id="craft_logopack">
    <g id="craft_icon_white">
      <path class="cls-1" d="m59.88,107.62c0,1.81,1.46,3.27,3.27,3.27h44.56c1.81,0,3.28-1.47,3.17-3.27-1.62-25.93-21.8-46.3-47.73-47.92-1.8-.11-3.27,1.36-3.27,3.17v44.75Z"/>
      <path class="cls-1" d="m51.38,62.97c0-1.81-1.46-3.27-3.27-3.27H3.17c-1.81,0-3.28,1.47-3.17,3.27,1.62,25.93,22.18,46.3,48.11,47.92,1.8.11,3.27-1.36,3.27-3.17v-44.75Z"/>
      <path class="cls-1" d="m51.38,47.92c0,1.81-1.46,3.27-3.27,3.27H3.17c-1.81,0-3.28-1.47-3.17-3.27C1.63,21.99,22.18,1.63,48.11,0c1.8-.11,3.27,1.36,3.27,3.17v44.75Z"/>
      <path class="cls-1" d="m59.88,3.27c0-1.81,1.46-3.27,3.27-3.27h44.56c1.81,0,3.28,1.47,3.17,3.27-1.62,25.93-21.8,46.3-47.73,47.92-1.8.11-3.27-1.36-3.27-3.17V3.27Z"/>
    </g>
  </g>
</svg>